<svg xmlns="http://www.w3.org/2000/svg" xmlns:xlink="http://www.w3.org/1999/xlink" width="480" zoomAndPan="magnify" viewBox="0 0 360 225" height="300" preserveAspectRatio="xMidYMid meet" version="1.0"><defs><clipPath id="5f9dcc1987"><path d="M 3.183594 0 L 356 0 L 356 225 L 3.183594 225 Z M 3.183594 0 " clip-rule="nonzero"/></clipPath></defs><g clip-path="url(#5f9dcc1987)"><path fill="#f2dfc8" d="M 351.421875 16.960938 C 347.796875 16.878906 344.550781 18.644531 341.003906 18.988281 C 339.769531 19.109375 336.476562 19.945312 335.234375 20.03125 C 321.960938 20.945312 308.621094 21.90625 295.265625 22.628906 C 289.699219 22.925781 284.136719 23.226562 278.574219 23.523438 C 274.660156 23.734375 269.335938 22.453125 266.054688 25.179688 C 265.480469 25.65625 264.992188 26.257812 264.328125 26.597656 C 263.265625 27.136719 261.996094 26.914062 260.816406 27.066406 C 258.988281 27.300781 257.429688 28.4375 255.839844 29.375 C 253.351562 30.835938 250.800781 30.121094 248.464844 31.59375 C 236.367188 39.199219 225.890625 49.988281 216.328125 60.503906 C 207.410156 70.320312 198.125 80.285156 189.90625 90.644531 C 188.859375 91.964844 188.039062 93.605469 187.285156 95.1875 C 186.9375 95.921875 185.378906 95.84375 186.011719 97.167969 C 188.25 101.582031 190.609375 105.882812 194.617188 109.050781 C 196.167969 110.277344 198.074219 110.976562 199.433594 112.453125 C 206.457031 116.679688 213.515625 120.835938 220.675781 124.828125 C 224.027344 126.691406 224.246094 128.144531 221.738281 131.207031 C 219.949219 133.390625 218.277344 134.695312 215.929688 136.179688 C 214.855469 136.855469 212.742188 139.164062 211.664062 139.335938 C 211.375 139.378906 211.070312 139.324219 210.796875 139.433594 C 210.191406 139.664062 210.121094 140.46875 209.820312 141.042969 C 209.089844 142.453125 207.105469 142.371094 205.578125 142.808594 C 204.21875 143.199219 203.082031 144.117188 201.832031 144.773438 C 198.09375 146.738281 193.832031 145.96875 189.886719 147.082031 C 186.054688 148.160156 184.191406 147.550781 183.417969 144.867188 C 181.15625 141.304688 178.890625 137.746094 176.625 134.183594 C 174.511719 131.191406 171.714844 128.707031 170.054688 125.375 C 170.027344 125.3125 169.984375 125.246094 169.925781 125.207031 C 166.167969 122.605469 162.484375 119.292969 157.859375 119.085938 C 154.207031 118.921875 151.5 117.203125 148.457031 115.933594 C 147.617188 115.582031 146.851562 115.054688 145.921875 114.921875 C 128.953125 116.5 111.136719 120.566406 95.304688 126.882812 C 78.730469 133.492188 63.175781 142.371094 51.976562 156.59375 C 44.65625 167.574219 38.957031 179.472656 31.8125 190.574219 C 26.847656 198.289062 22.171875 205.980469 18.429688 214.347656 C 17.304688 216.867188 15.742188 218.753906 12.6875 218.722656 C 12.574219 218.722656 12.398438 218.796875 12.347656 218.890625 C 11.378906 220.652344 10.292969 222.148438 8.269531 223.042969 C 7.371094 223.4375 6.617188 224.976562 5.53125 224.261719 C 4.386719 223.511719 4.273438 222.03125 4.953125 220.695312 C 3.632812 217.789062 4.316406 214.722656 4.222656 211.722656 C 3.441406 208.128906 4.015625 204.519531 4.414062 200.980469 C 6.277344 184.355469 10.816406 168.484375 15.132812 152.375 C 20.527344 132.246094 28.71875 110.578125 43.816406 95.449219 C 46.269531 92.988281 49.605469 92.941406 52.675781 92.492188 C 60.523438 91.34375 68.394531 90.242188 76.183594 88.738281 C 83.265625 87.375 92.367188 86.332031 98.761719 83.394531 C 101.78125 82.011719 105.046875 81.238281 107.96875 79.597656 C 109.367188 78.8125 110.089844 78.183594 108.90625 76.550781 C 107.378906 74.441406 106.097656 72.15625 104.710938 69.945312 C 102.585938 68.449219 100.5 66.964844 97.707031 66.878906 C 96.628906 66.847656 95.570312 66.234375 94.824219 65.316406 L 94.078125 65.097656 C 92.832031 62.503906 93.84375 60.546875 96.609375 60.488281 C 98.855469 60.445312 101.105469 60.6875 103.351562 60.804688 C 107.9375 57.050781 112.976562 55.046875 119.046875 56.351562 C 122.3125 57.0625 125.484375 57.917969 128.507812 59.390625 C 137.855469 63.941406 153.359375 53.417969 160.164062 47.960938 C 169.199219 40.710938 176.941406 31.515625 182.660156 21.449219 C 185.601562 16.269531 187.605469 9.878906 191.992188 5.710938 C 193.777344 3.464844 196.53125 3.445312 198.964844 2.738281 C 200.15625 2.390625 201.453125 2.429688 202.707031 2.292969 C 223.421875 0.285156 244.101562 -0.0273438 264.699219 3.5625 C 266.558594 3.824219 270.667969 4.402344 270.863281 4.425781 C 275.992188 4.84375 281.128906 5.207031 286.25 5.695312 C 293.058594 6.335938 299.863281 7.058594 306.667969 7.765625 C 307.222656 7.820312 307.761719 8 308.304688 8.121094 C 308.433594 8.132812 308.558594 8.144531 308.6875 8.15625 C 315.015625 8.761719 321.347656 9.359375 327.671875 9.964844 C 333.703125 10.542969 339.78125 11.007812 345.785156 11.816406 C 347.09375 11.996094 348.324219 12.511719 349.601562 12.832031 C 351.25 13.246094 353.265625 12.242188 354.796875 12.992188 C 356.554688 13.851562 353.800781 17.007812 351.421875 16.960938 " fill-opacity="1" fill-rule="nonzero"/></g></svg>