<svg xmlns="http://www.w3.org/2000/svg" xmlns:xlink="http://www.w3.org/1999/xlink" width="1587" zoomAndPan="magnify" viewBox="0 0 1190.25 1683.749945" height="2245" preserveAspectRatio="xMidYMid meet" version="1.0"><defs><clipPath id="51140a94a7"><path d="M 331 591 L 857 591 L 857 1100 L 331 1100 Z M 331 591 " clip-rule="nonzero"/></clipPath><clipPath id="245061028c"><path d="M 842.347656 911.335938 C 836.816406 980.90625 783.054688 1027.546875 783.054688 1027.546875 C 729.296875 1074.191406 662.097656 1090.003906 662.097656 1090.003906 C 594.902344 1105.816406 523.75 1097.117188 523.75 1097.117188 C 452.597656 1088.421875 416.230469 1027.546875 416.230469 1027.546875 C 379.867188 966.675781 353.777344 904.21875 353.777344 904.21875 C 327.6875 841.765625 331.640625 767.453125 331.640625 767.453125 C 335.59375 693.136719 415.441406 681.277344 415.441406 681.277344 C 495.289062 669.421875 545.09375 631.472656 545.09375 631.472656 C 594.902344 593.527344 667.632812 591.945312 667.632812 591.945312 C 740.367188 590.363281 802.03125 638.589844 802.03125 638.589844 C 863.695312 686.8125 855.789062 764.289062 855.789062 764.289062 C 847.882812 841.765625 842.347656 911.335938 842.347656 911.335938 Z M 842.347656 911.335938 " clip-rule="nonzero"/></clipPath></defs><g clip-path="url(#51140a94a7)"><g clip-path="url(#245061028c)"><path fill="#fff8f0" d="M 278.671875 525.535156 L 911.128906 525.535156 L 911.128906 1157.992188 L 278.671875 1157.992188 Z M 278.671875 525.535156 " fill-opacity="1" fill-rule="nonzero"/></g></g></svg>