<svg xmlns="http://www.w3.org/2000/svg" xmlns:xlink="http://www.w3.org/1999/xlink" width="140" zoomAndPan="magnify" viewBox="0 0 104.88 30.000001" height="40" preserveAspectRatio="xMidYMid meet" version="1.0"><defs><clipPath id="786902482a"><path d="M 1.632812 5 L 103.128906 5 L 103.128906 26 L 1.632812 26 Z M 1.632812 5 " clip-rule="nonzero"/></clipPath></defs><g clip-path="url(#786902482a)"><path fill="#f2dfc8" d="M 173.417969 16.371094 C 173.140625 16.035156 172.582031 15.980469 172.246094 16.257812 C 156.40625 29.03125 148.707031 22.953125 140.5625 16.480469 C 132.644531 10.175781 124.445312 3.652344 108.992188 15.03125 C 108.878906 15.085938 108.769531 15.140625 108.714844 15.199219 C 92.871094 27.972656 85.175781 21.890625 77.03125 15.421875 C 68.71875 8.839844 60.128906 1.976562 43.226562 15.644531 C 43.171875 15.699219 43.117188 15.753906 43.058594 15.867188 C 28.222656 27.078125 20.746094 21.167969 12.882812 14.863281 C 5.015625 8.558594 -3.238281 2.035156 -18.6875 13.414062 C -18.800781 13.46875 -18.914062 13.523438 -19.023438 13.582031 C -34.867188 26.355469 -42.5625 20.273438 -50.707031 13.804688 C -59.128906 7.054688 -67.71875 0.25 -84.566406 13.859375 C -84.902344 14.136719 -84.957031 14.695312 -84.675781 15.03125 C -84.398438 15.367188 -83.839844 15.421875 -83.507812 15.140625 C -67.664062 2.367188 -59.96875 8.449219 -51.824219 14.917969 C -47.027344 18.710938 -42.171875 22.617188 -35.648438 22.617188 C -31.351562 22.617188 -26.332031 20.941406 -20.195312 16.425781 C -20.082031 16.371094 -19.972656 16.371094 -19.859375 16.257812 C -4.019531 3.484375 3.679688 9.5625 11.824219 16.035156 C 16.621094 19.828125 21.472656 23.730469 28 23.730469 C 32.796875 23.730469 38.484375 21.613281 45.625 15.867188 C 45.679688 15.8125 45.738281 15.753906 45.792969 15.644531 C 60.628906 4.433594 68.105469 10.34375 75.96875 16.59375 C 80.765625 20.386719 85.621094 24.289062 92.148438 24.289062 C 96.441406 24.289062 101.40625 22.617188 107.597656 18.097656 C 107.710938 18.042969 107.820312 17.988281 107.875 17.929688 C 123.71875 5.15625 131.417969 11.238281 139.558594 17.707031 C 144.355469 21.5 149.210938 25.40625 155.738281 25.40625 C 160.535156 25.40625 166.222656 23.285156 173.363281 17.539062 C 173.640625 17.261719 173.699219 16.761719 173.417969 16.371094 Z M 173.417969 16.371094 " fill-opacity="1" fill-rule="nonzero"/></g></svg>